/* XPM */
static char *_6b597bb51df4e738e17ad705a0e9c2du0F6wwOGjOR21VEP[] = {
/* columns rows colors chars-per-pixel */
"64 64 256 2 ",
"   c #030302",
".  c #070808",
"X  c #03160D",
"o  c #091916",
"O  c #171719",
"+  c #100D10",
"@  c #281A18",
"#  c #2B1611",
"$  c #032D1A",
"%  c #0C2C1C",
"&  c #062616",
"*  c #14241C",
"=  c #06351D",
"-  c #062A12",
";  c #31241D",
":  c #161C23",
">  c #0B1921",
",  c #251D24",
"<  c #371F22",
"1  c #0B2A23",
"2  c #152A27",
"3  c #093624",
"4  c #133C2B",
"5  c #16352A",
"6  c #1B3C34",
"7  c #193935",
"8  c #143032",
"9  c #392927",
"0  c #282C36",
"q  c #253837",
"w  c #2C2F2E",
"e  c #493636",
"r  c #543836",
"t  c #4B2B2B",
"y  c #613C3B",
"u  c #0C442C",
"i  c #074828",
"p  c #14422D",
"a  c #144A2C",
"s  c #03532B",
"d  c #06572D",
"f  c #0B4B32",
"g  c #1B4B3B",
"h  c #174737",
"j  c #085935",
"k  c #155739",
"l  c #23443C",
"z  c #27463A",
"x  c #27503B",
"c  c #0B633B",
"v  c #056638",
"b  c #13663C",
"n  c #046D38",
"m  c #52423C",
"M  c #62423D",
"N  c #2F3A45",
"B  c #1A3D41",
"V  c #6B3C42",
"C  c #5C3D43",
"Z  c #1C4A42",
"A  c #1B5945",
"S  c #1F5B51",
"D  c #244C44",
"F  c #284948",
"G  c #374648",
"H  c #225445",
"J  c #27574A",
"K  c #2A5B54",
"L  c #375957",
"P  c #344F50",
"I  c #096B44",
"U  c #186748",
"Y  c #097748",
"T  c #15764B",
"R  c #197855",
"E  c #157454",
"W  c #23634D",
"Q  c #246649",
"!  c #286855",
"~  c #35675B",
"^  c #267759",
"/  c #2E6F51",
"(  c #376964",
")  c #2A7A63",
"_  c #367766",
"`  c #346A67",
"'  c #3C5B60",
"]  c #524D4F",
"[  c #684749",
"{  c #764847",
"}  c #7A5958",
"|  c #6C5453",
" . c #546756",
".. c #53746D",
"X. c #6C7877",
"o. c #737A7B",
"O. c #6B6C69",
"+. c #5F6061",
"@. c #855859",
"#. c #905956",
"$. c #88625C",
"%. c #96635C",
"&. c #8A6465",
"*. c #976767",
"=. c #987677",
"-. c #8F7271",
";. c #A46868",
":. c #A97776",
">. c #B57B79",
",. c #AE6F70",
"<. c #C4757D",
"1. c #0A854B",
"2. c #0C8756",
"3. c #178658",
"4. c #0C9659",
"5. c #15955B",
"6. c #13824D",
"7. c #25885B",
"8. c #259756",
"9. c #15A45C",
"0. c #0C9963",
"q. c #189966",
"w. c #1B8C64",
"e. c #278866",
"r. c #36876C",
"t. c #25976A",
"y. c #378874",
"u. c #299A74",
"i. c #39987B",
"p. c #33916C",
"a. c #18A66A",
"s. c #19AB73",
"d. c #1CB477",
"f. c #12AC69",
"g. c #24A66A",
"h. c #27A676",
"j. c #27B778",
"k. c #35B97B",
"l. c #35A973",
"z. c #2EAA5B",
"x. c #449779",
"c. c #4B8A73",
"v. c #76837B",
"b. c #43B07B",
"n. c #19C57A",
"m. c #2AC37C",
"M. c #32CA79",
"N. c #43CE7B",
"B. c #888A78",
"V. c #B7827D",
"C. c #A98478",
"Z. c #C1807C",
"A. c #7A7D81",
"S. c #927B81",
"D. c #AF7B83",
"F. c #C87B84",
"G. c #D37E8B",
"H. c #36AA84",
"J. c #2BB985",
"K. c #38B986",
"L. c #2AAE85",
"P. c #1CB882",
"I. c #4E9D89",
"U. c #7B8485",
"Y. c #7E8689",
"T. c #7D8A8A",
"R. c #758887",
"E. c #7B9598",
"W. c #71918D",
"Q. c #4BAE8A",
"!. c #75A49B",
"~. c #76B1AB",
"^. c #68A8A2",
"/. c #1BC682",
"(. c #2BC786",
"). c #36C986",
"_. c #36D689",
"`. c #32D291",
"'. c #37E499",
"]. c #44C887",
"[. c #45D789",
"{. c #48CA98",
"}. c #48DB94",
"|. c #54CE99",
" X c #4BE599",
".X c #54D9A3",
"XX c #4EDBA6",
"oX c #78C4B5",
"OX c #4FE5A8",
"+X c #60E9B3",
"@X c #7CC2C0",
"#X c #838B8C",
"$X c #86898A",
"%X c #87918E",
"&X c #858E91",
"*X c #8B9394",
"=X c #889697",
"-X c #949B9D",
";X c #949695",
":X c #958E8A",
">X c #B58382",
",X c #BB8583",
"<X c #BC8A85",
"1X c #B9888A",
"2X c #B09091",
"3X c #91A49C",
"4X c #A7A59A",
"5X c #989EA1",
"6X c #819EA0",
"7X c #86A6A7",
"8X c #9CA3A5",
"9X c #9EA7A8",
"0X c #9DA9AA",
"qX c #97A5A4",
"wX c #8EB6B2",
"eX c #A3A5AA",
"rX c #A2AAAB",
"tX c #A6A7A8",
"yX c #A9ADB2",
"uX c #B2B1B2",
"iX c #B59DAB",
"pX c #C38C8B",
"aX c #C78787",
"sX c #D48B8C",
"dX c #C6918D",
"fX c #C68E94",
"gX c #D48C94",
"hX c #CB9494",
"jX c #C89797",
"kX c #D39494",
"lX c #D49B9D",
"zX c #DB9B9C",
"xX c #D89598",
"cX c #D3918E",
"vX c #E29C9C",
"bX c #EE8E97",
"nX c #D3A49D",
"mX c #E5A19B",
"MX c #D89CA2",
"NX c #C79CA4",
"BX c #E29CA2",
"VX c #DCA2A4",
"CX c #D8A6A8",
"ZX c #CDB0B2",
"AX c #E3A2A4",
"SX c #ECABAD",
"DX c #E6A6A9",
"FX c #E7ABB4",
"GX c #EBB4B9",
"HX c #F4AEB3",
"JX c #99C2BF",
"KX c #F1B8C3",
"LX c #D8BAC4",
"PX c #B0C6C5",
"IX c #FDC4CD",
"UX c #A4BCBE",
/* pixels */
"j.a 4 N.M.z. X8.- * 2 4 O 1 ^ M._.z.a l.t.5.(.a 4 h.h.R h.k p j.`.p.h 4 H W A 5 ) `.l.)..XA 4 e.s.A % x k. Xj.k i 9.(./.5.d 4.I ",
"].T X 8. X[.M.6.O a b E A 2 l.N.N.}.7.k.j.^ ).7.2 R s.0.R 5 q S ^ H 7 7 l J J 7 W OXl.g.OXR 4 e.(.3.a k g.(.f.b k m._.[.N.1.5.Y ",
"M.m.i p 7.g.5.6 # H t.p.l.b N.N.z.|.k.8.m.7.[.].k w J w.E 0 8 J A 7 6 B 7 Z J g D `.{.K.XX7.l R h.^ h 4 2.f.d.w.n _.k.g. X5.T 4.",
"a.l.a + 5 R 7.6 @ R s.Q j.8.b. Xz.N.M.Q m.k.).(.E * 7 (.H.3 8 ` Z H .._ S F J H B w.|.{.H.U q H ^ E 6 h s.t.w.P.2._.M.4.'.a.a Y ",
"g s 2 > 8 J h.E : E J.J e.a./  XN.}.j.p H t.M._.K.U k k o + O : o > B F P P F Z N F e.s.p.~ 7 H ) w.p z t.g.U J.3.j. Xm._.5.= 3 ",
"5 f h 2 : w 7.w., F J.w.p.p.z p.].).^ , o J J.k.OX^ X . .       . . > > > 8 B K 0 N K e.r.y.! F U q.x 5 w.(.R g.3.v k.`.m.n % $ ",
"* k h * , O / t.F 0 e.u.t.~ 5 w U A g 0 q ! t.Q H     .     +       + . > > F K 1 N ..y._ H.) N F ) ! 6 S P.u.q.U % k a.d.d * % ",
"w 2.E J J 7 ) H.) q q L ) K H 0 N Z _ W g 5 w o   . .   + .     .   .   . . 0 8 8 ( i._ ( H.y.0 N ! ) A 0 S ^ I g 2 3 v h.R - $ ",
"H n.m.k.e.q L u.k.W 6 F L K ! J 0 F p.^ k *   . . .     . . .   . . . +     . > o 0 P P _ .XI.D N F ! W 8 0 7 p f h 8 2 j R 3 X ",
"q 7.g.j.R 0 H l..Xi.G P _ J ! L N B p.E ! X . + . . .   . . . . . O O + + + + +   . B ` F I.Q.` N L ! ! ! 7 h l 5 h 4 o 4 2.s + ",
"2 3 7.`.y.N P x..X{.G P _ S ' ` P 8 y.x.2 X . * , < , O + O O O , 9 9 w , O o + : . . ' L K Q.Q.P ( ) ! y.A g Z 5 h f % 4 3.U 1 ",
"7.p r.OXQ.J z K Q..X .G _ ` ` ! N N ~ I O @ t C [ | } } | [ e e r } -.-.} r < ; @ . B F ` ..c. XI.~ e.D ) R 6 A h l h 1 3 U c = ",
").Q D H.{._ z G x.+XQ.L ( ` ` K G q A ^ + ; #.,.:.aXkXlXxXhX<X:.*.D.lXlXfX:.@.} C < O 0 ` Z x .X|.~ h.W / ) 7 D g l 5 1 2 j I $ ",
"'.p.5 ^ XXi.P P c..X{.` P ] L L F F I.U . ] V.Z.aXkXmXmXmXmXmXvXcXvXvXvXzXkXdXpXS.&.e 2 P B z ^..X~ r._ ~ J 5 7 g k 4 * 5 k I g ",
"`.l.q _ OX|._ L c.Q.Q._ P ' ' ~ ( Z r.& + $.V.dXhXAXSXFXSXDXmXmXSXSXAXBXBXzXkX<XjX2X&.9 o : N |.|.! F ~ ) A 8 7 g E k 1 2 u I k ",
"].h.D ! k.Q.) N ~ r.y...` ' ( J ~ L A . 9 :.pXV.VXCXGXGXGXDXSXSXSXDXBXAXDXVXxXcXNX4X2X| B : 2 `.x.N F ` h.e.0 7 g 2.U 5 8 3 j c ",
"j.^ h P e.l.! N ` r.) y._ ' ` P K K 2 o t *.<XaXBXDXSXSXSXDXSXSXSXDXAXMXAXAXzXdXfXuXPXS.G 8 D y.i.L F ! J.L.h 7 q f R i 3 5 f b ",
"^ U g F ! H.y.P ~ c.~ r.y.L ( K J J O . e :.aXxXNXCXCXFXzXzXmXxXvXvXxXbXvXgXsXgXkXPXuX-.' F 6 y.H.i.K q y.L.S 5 0 c 3.k 5 p i d ",
"b A W D D u.L.F P H.r.) y.J P L W W 2 + e ,.aXhXMXMXMXFXHXAXDXBXxXcXxXMXxXxXhXaXjXuXZX-.B 7 1 y.) L.^ 0 ! J.e.h 6 j T T p u i I ",
"b b R D 6 ) L.K D ^ y.^ ^ g q _ Q.p.q O 9 :.dX1XfXCXKXKXIXHXHXSXSXHXHXGXFXAXgXMXZXPXuX} 2 1 1 I.~ i.e.q W J.h.k 6 k 8.s.j u a T ",
"U A U A h ! L.y.J q _ h.p.z 7 L.+X{.x O w D.>.*.O.[ | S.NXKXFXHXHXHXKXKXLXNXD.D.:XPXZX[ , O q H.y.y.) h S s.h.^ 4 U `.'.6.p a f ",
"T U U k D K e.R P q ^ XX|.! N R M. X^ * 9 >.%.&.=.S.-.| C ;.CXGXSXMXNXS.C r ] e [ $XuX[ , O h y.p.) W 4 W u.h.j.^ k j.OXh.i i = ",
"U U A k h Z K U D D ^ ].OXe.q 0 7..Xp.O t ,.,.D.FXKXNXfX1XD.mXSXHXzXaX,.&.1XFXjX:.-.4X+.0 B H S ! ^ S 7 R J.h.(.j.a c `._.b = = ",
"h k a h g h S ^ A 6 h ^ OXh.q q / .Xl.@ e ,.D.>X@.{ t } D.;.Z.SXmXzX<.*.%.&.:.fXfXS.uXX.N ( ! F W t.S q w.`.7.u.(.k f J..X5.d 3 ",
"p u u 6 F 5 u W A h 0 g (.(.H 5 Q x.<.M t Z.dX>.,.VXpXdXzXF.aXmXzXgX<.;.#.y { V #.:.PXR.B ..l.Z l ! U 6 A P.w.^ d.k u q.`.q.f $ ",
"5 6 4 4 6 7 7 l h 8 5 g H.K.^ q f L sXV.M Z.<XcXvXmXAXVXBXxXxXxXsXxXsXaX>.hXMXaXC.<XLXE.] ,.C. .g U R g p w.h.q.5.u p Y 0.5.s $ ",
"p h h f h 7 h H ! D D D y.i.) h 2 x G.cX%.<.<XSXHXSXmXAXBXBXgXgXsXsXcXcXaXgXBXMXCXZXPX%X&.sX<.c.F K e.Q l W t.q.T f a 2.3.t.2.f ",
"f h h g g 6 h g H Z 7 6 W E U A w m Z.Z.;.aXjXCXDXHXmXHXHXgXfXxXcXsXcXmXSXMXMXBXZXLXZXtX2XdXnXp.F J ^ R z h U I U U a w.0.E s.I ",
"f 4 p f a h q h h Z 7 q W A J ! h * =.<.#.Z.lXDXKXGXHXDXsXsXbXHXSXgXaXaXBXFXHXFXCXZXZXtXhXbX4X) l H e.g.H a k Q j T k 4.0.I a.E ",
"h 4 k 8.7.k 3 q h h 8 7 W A g U g % G ,.{ V.xXGXIXGXSXkXfXkXBXKXHXDXgXgXsXBXKXKXFXZXPX*XgXbX..W g U K.`.R h U R k Y b R s.2.u.Y ",
"u u T M.}.T = 6 4 h 7 8 A U g A 7 5 2 D.@.V.cXSXGXDXDXzXfXD.D.MXMXfX>.MXgXgXFXGXAXlXZXE.D.,XQ U k k p.`.q.a c I U v U b q.0.0.v ",
"k u b j.}.t.a 4 4 7 7 1 f U j g 6 1 5 D.M :.sXvXmXcXxXMX&.r &.1X1X*.{ >.DXgXBXFXzXkXNXA.MXB.j ! U i x k.).k k T I I c s I 0.s.q.",
"k s a b N.k.d = 3 4 4 3 8 7 Z I g 1 I $XC &.F.xXMXD.| | r t @.G.D.V < t &.fXfXBXbXjX2XO.jXc.g k U s a j.'.^ f k 1.9.9.n n K.m.n.",
"a d p a b.[.3.4 5 4 p 8 1 7 E R w.a T l.w m D.fXgXV r &.D.D.MXG.MXMX*.#.V C D.gXdX2X-.+.>Xb U c Q k s t.`.g.j d j._.[.g.9._.f.4.",
"d j i d j._.g.p 1 f U j 1 g q.U 3.^ A d.k M #.:.F.,.F.D.;.D.G.F.G.F.,.;.%.@.,.xX<XC.} z J k U U k a s 6.q.q.T Y M.).].[.f.`.h.6.",
"u a = i 6.6.k 3 1 k e.Y 1 g q.k I a.s g.T m { $.aXCXBXMXG.G.gXG.G.G.,.D.gXF.D.aX;.@.] e.I a d T 3.u s 3.q.a.g.2.[.M.9. Xd./.).4.",
"j I f $ = = - = 5 3 A Y 3 1 w.2.I E i f U z [ @.>.hXAXAXMXBXF.gXxXgXxXsXxXzXaX;.&.[ q l.1.i U d.).c a q.f.3.j.4.M._.f. Xj.5.(.d.",
"R 2.2.u $ 3 % 3 % & f 3.j * j 3.R T 5 + a / y ;.:.cXxXnXMXMXgX#.:.kXhXkXvXsXaX%.@.e ~ a.g.U k s.`.2.a 5.d.Y f.q.9. X_.M.8.v Y a.",
"E T 3.c $ 3 5 * % $ a 3.I 3 % b 9.0.U - d k.} *.Z.V.dXlXCXMXgX;.fXzXAXcXxXcX,.:.@.e t.0.j.q.3 T (.a.d I L.q.q.3.v z.m.g.6.d d 4.",
"0.j 5.Y 1 3 = * % $ % U Y 4 & Y n.(.(.j a M.B.%.;.<XdXlXMXBXFXBXDXDXlXcXcXaXV.#.r  .J.E s.d.f s j.).T d 5.0.0.Y d j 1.4.n j c Y ",
"0.I 2.E 3 % $ % $ & 5 E R 3.s 5.m.4._.3.= z.B.,.%.#.V.nXzXSXDXBXCXMXlXgXZ.V.$.m #.v.j.9.e.j.n k s.[.9.n j 2.a.f.Y d I 0.6.j j s ",
"3.I Y j $ % % $ * & j 0.Y f.T 3._.1.n.j.= a C.Z.-.| } C.1X1X1XaXfX1XD.1X;.M m $.>.O.f.f.a.a.d k f.).m.1.I s.0.d.a.c v 1.2.v s s ",
"i j I s $ * % $ $ % I s.A 2.0.Y M.f.m.j.- - C.dX>X} M r [ [ [ [ @.[ [ [ 9 m %.:.<. .d 5.a.1.a c d._.M.M.2.d.2.w.n.Y s Y q.Y s a ",
"$ j T v $ & $ $ $ o 3 f.Y I q.i 5.n.m.2.k ..1X2XaXC.$.r # @ @ 9 # # # # m $.;.,.C.v.3 c (.m.d v _.M.m.[.a.d.a.1./.T d Y q.1.v i ",
"= i R Y = X = & $ & * 6.w.1.1.- = 8.x.c.T.B.>XnXaXdXV.*.[ r 9 t t ; M $.*.:.Z.V.:.B.I.l.(.'.1.d ).).z._.j.4.j.9.d.n d n Y Y v i ",
"= - v Y i - $ & - X o - Y f.e./ X.v.X.X.$X| C.sXkXdX<X<X<XC.%.%.$.*.:.V.;.V.V.C.Z.M v.oX^.|.i.i s._.M._.9.n 4.a.4.v d n n I v s ",
"s - i 1.c $ o & & $ - X T K.!.qX*XA.o.R.;X| C.nXnXjXjX<X<XhXdXdXaXdX<XV.V.V.V.V.V.M ] qXwX~.^.I.q.(.(.M.4.s j 6.2.v d v c v v d ",
"f & = T I = o 1 3 s d  .6XyX4X=X;X*XT.A.qX] *.nXCXnXnXjXdXdXjXjXhXV.V.V.V.V.aXaXC.} ; !.^.JX@X~.!.Q.M._.1.i v Y a.n d v b v v d ",
"i - - v 1.i X 3 K c.qXyXyXeXqXqXeX5Xv...qXS.[ nXnXCXVXcXdXjX<XaX>XV.>X<X<XpX<XV.:.#.@ R.A.!.wX@X7X!.~.oXH.I i k 4.1.s d n n v d ",
"$ o = 4./.Y g W.wXrX0XeXrX8X8X8XrX8X:XO.=X5X} =.DXCXnXnXdXdXpX<XC.V.V.<XpXpX,XV.:.*.O Y.A.A.~.wXwX~.^.~.wX~.y.E 2.2.v v n c j s ",
"s X $ 6.Q.wXyXuXrXeXeXeXyX9XqX9X9X8X8XX.E.5XS.} dXCXCXCXlXhXpX2XV.>.>X<XpXpX<XV.V.$., 5XI.X.Y.6X~.~.!.E.W.!.wXoX^.{.R s i j c s ",
"n - L 6XyXiXuXeXtXtXeXyXeX5X;XqX5XrX8X%XT.=X5XS.*.dXCXCXvXlXdX1X<X>X<XpXpX<X<X<XV.M N qXA.A.#XT.=X6X7X~.^.^.E.E.~.~.~.I.c v 1.Y ",
"r.T.uXuXuXyXyX0XeXeXqX8X9X9X9XrXqXtX9X8X=X&X&X=XB.;.hXFXVXjXjXfX<XpXdXhXdX<X<XpXdXt O.3Xo.&XT.#X&XT.T.W.E.E.E.E.E.E.~.@XoXy.Y Y ",
"0XyXrXqXyXwX0XyX9XeX8XqX9X9X8X5XrX-XyXqXrX6XA.T.4X=.:.lXCXCXMXlXjXjXhXjXdX<XjXjX:.9 ;XT.T.E.R.T.T.%X#XT.R.W.E.E.E.E.E.^.~.JXI.n ",
"yX0XyXyXuXyXeX5XqX9XeXqX8X8X9XrX8X-X0X0X8XeXA.A.%X:XC.1XCXCXMXCXVXMXlXjXdXjXnXCX$.M qX%X&XR.R.Y.T.#XT.T.#XY.U.A.E.T.E.=X7XwXoX~.",
"yX0XyXtX0X7XeXeX9X9X8X8X9X9X9X9XeX8X0X9XrX8X8XA.X.Y.$X:XjXlXMXCXCXCXCXnXlXnXCXCX{ O.3X*XA.X.T.&XW.E.%X#X$X#X#X#X&XT.T.$X&X!.~.@X",
"rX9XeX9XeXeXeXeX9X8XtX9X8X8X0XrX9X8X8X9XeX9X8X8XR.X.O.%X4XiXZXFXCXFXGXZXCXFXCXD.O.:X:XX.A.R.%X#XT.Y.U.Y.#X#X#X#X&X&X:X&X#X&XE.7X",
"rX0X9XeX8XeX5X5X8X8X8XrX0X0X9X0X9X8X8X8X9X9X8X5X*XX.O.X.;X;X2X2XNXFXFXFXGXGX2X-.$X&XA.A.R.R.Y.U.Y.Y.Y.Y.A.#X#X#X$X*X%X*X%X%X&XE.",
"9X8X8X8X8X5XeX5X8X8XrXrXrX0X9X9X8X8X9X9XeX9X9X8XqX#XX.X.A.%X#Xo.iXCXFXKXGXNXO.+.3XR.v.U.#XY.U.Y.Y.Y.Y.U.Y.Y.#X#X$X%X*X&X&X*X&XT.",
"5XrXeX-X5X5X5X5X8X8X8X9X9X9X9XqX8X8X8X8X9X9X9X9X8X8X;X-X=X8XqX=X:XNXFXZXtXyXX.+.=XR.R.Y.U.Y.U.T.U.R.Y.Y.Y.A.Y.#X$X#X%X$X&X=X&XR.",
"8XeX9X5X5X-X;X5X4X8X8X8X8X9X8X9X5X8X8X8X8X8X8X9XqXqX8X-X5X-XqX-X3XNXNXiX%X%XX.X.#XU.#XU.o.$XR.R.U.U.A.R.Y.Y.Y.Y.$X#X#X#X*X;X*XY.",
"8XqX-X8X5X;X*XeX8X8XqX8XqX8XqX9XqX9X8X8X8X8X8X8X0X0X8X8X5X;XqXqX*X;X$Xv.X.+.+.o.$Xo.$Xv.U.#XU.A.U.U.A.R.Y.Y.Y.U.T.#X$X$X&X;X=XY.",
"5X=X%X5XeX*X%X5X8XqX8X5X8XqX9X9XeX9XeX8X8X8X8X9X8XqX-XeX-XqX8X8X$Xo.U.o.v.$XB.T.$XY.$X#X#X#X#X#XY.T.Y.T.Y.#XY.Y.$XY.#X#X*X*X*XY.",
"-X-X=X;XqX-X:X*X8X8X5X8XqX9X9X9X9X8X5XqX5X8X8X5X5X8X8X8XqX;X-X;XO.z o.v.U.$X*XT.%X%XT.&X*X*X*X&X#X&X&X&X#XY.#XT.Y.Y.Y.&X-X=X&XY."
};
