/* XPM */
static char *_888b7b177fc4fc4b4f343cb14bbd44eqVIc3wFkAMW68lmD[] = {
/* columns rows colors chars-per-pixel */
"64 64 256 2 ",
"   c #030A09",
".  c #160C09",
"X  c #02140D",
"o  c #011A0D",
"O  c #001B06",
"+  c #1C120D",
"@  c #14110C",
"#  c #041512",
"$  c #021C14",
"%  c #091A18",
"&  c #1A1716",
"*  c #0B0D13",
"=  c #23140E",
"-  c #221512",
";  c #241B15",
":  c #2A1C16",
">  c #251C19",
",  c #291E19",
"<  c #271716",
"1  c #341E17",
"2  c #210D0C",
"3  c #032315",
"4  c #03231A",
"5  c #032C1C",
"6  c #072619",
"7  c #02331D",
"8  c #162419",
"9  c #2C221B",
"0  c #272219",
"q  c #32241C",
"w  c #392319",
"e  c #101B23",
"r  c #092A23",
"t  c #162827",
"y  c #033C24",
"u  c #063725",
"i  c #18352B",
"p  c #183733",
"a  c #192732",
"s  c #292724",
"d  c #362922",
"f  c #3B2C24",
"g  c #352824",
"h  c #3C3229",
"j  c #293836",
"k  c #221F26",
"l  c #462A1C",
"z  c #442E26",
"x  c #44332B",
"c  c #49352B",
"v  c #4A362A",
"b  c #583828",
"n  c #4C3A31",
"m  c #433B35",
"M  c #533E33",
"N  c #5B2F22",
"B  c #653E2B",
"V  c #00421E",
"C  c #024C2D",
"Z  c #054429",
"A  c #02562E",
"S  c #084A33",
"D  c #164639",
"F  c #035434",
"G  c #025B34",
"H  c #045C3A",
"J  c #095437",
"K  c #145035",
"L  c #2D4938",
"P  c #016235",
"I  c #03633C",
"U  c #04683C",
"Y  c #05723E",
"T  c #03662D",
"R  c #544135",
"E  c #5A463A",
"W  c #4B473A",
"Q  c #66412E",
"!  c #634B3E",
"~  c #6A4534",
"^  c #774A37",
"/  c #7D513B",
"(  c #7A5039",
")  c #73402F",
"_  c #2B3A42",
"`  c #0B5C41",
"'  c #185745",
"]  c #1C4C43",
"[  c #284747",
"{  c #25564A",
"}  c #295C54",
"|  c #3A595C",
" . c #385349",
".. c #036B43",
"X. c #086846",
"o. c #166648",
"O. c #017343",
"+. c #04744B",
"@. c #07784A",
"#. c #13734D",
"$. c #087A53",
"%. c #177756",
"&. c #176A52",
"*. c #286857",
"=. c #34665E",
"-. c #25745A",
";. c #2D7053",
":. c #396864",
">. c #297863",
",. c #347468",
"<. c #3B5A63",
"1. c #525247",
"2. c #644E41",
"3. c #6A4A42",
"4. c #695446",
"5. c #765949",
"6. c #785D51",
"7. c #556556",
"8. c #7B6356",
"9. c #6A6754",
"0. c #425962",
"q. c #48666B",
"w. c #477674",
"e. c #506E73",
"r. c #6E6B69",
"t. c #83543D",
"y. c #89573F",
"u. c #864E38",
"i. c #845541",
"p. c #8B5B44",
"a. c #885B45",
"s. c #925E48",
"d. c #835F52",
"f. c #94634B",
"g. c #9A664D",
"h. c #96654A",
"j. c #866858",
"k. c #996B54",
"l. c #8E6C56",
"z. c #A5765C",
"x. c #A0664E",
"c. c #977968",
"v. c #8D7266",
"b. c #A77D67",
"n. c #04834B",
"m. c #088858",
"M. c #15885A",
"N. c #06945A",
"B. c #178F55",
"V. c #198864",
"C. c #099866",
"Z. c #179768",
"A. c #11956C",
"S. c #26876A",
"D. c #378876",
"F. c #269875",
"G. c #2E9171",
"H. c #15A46B",
"J. c #17A978",
"K. c #1AB67A",
"L. c #0BA771",
"P. c #27A57B",
"I. c #24B879",
"U. c #2CAD6C",
"Y. c #21935F",
"T. c #738371",
"R. c #488E77",
"E. c #37C87A",
"W. c #9B8776",
"Q. c #849B79",
"!. c #A98268",
"~. c #B6876C",
"^. c #A98A74",
"/. c #B78D72",
"(. c #BA9478",
"). c #A8937A",
"_. c #C49A7D",
"`. c #5C7A81",
"'. c #667988",
"]. c #399A85",
"[. c #3E8E81",
"{. c #19B787",
"}. c #27A983",
"|. c #37A588",
" X c #27B787",
".X c #35B590",
"XX c #3EBFA1",
"oX c #519089",
"OX c #678B90",
"+X c #4EAE94",
"@X c #69AA90",
"#X c #6DB2A8",
"$X c #59B9A2",
"%X c #1CC68D",
"&X c #28C587",
"*X c #35CB87",
"=X c #27C897",
"-X c #35C997",
";X c #29D399",
":X c #35D59B",
">X c #30D589",
",X c #37D9A6",
"<X c #2BD6A3",
"1X c #3CE5A7",
"2X c #3EE3B0",
"3X c #37E597",
"4X c #45D296",
"5X c #4CE89A",
"6X c #47DBA7",
"7X c #57CEAC",
"8X c #6ECFB2",
"9X c #46E7A9",
"0X c #51EDAF",
"qX c #75E9B7",
"wX c #68EBC2",
"eX c #B19A89",
"rX c #B8A28B",
"tX c #B4B0AA",
"yX c #90A387",
"uX c #C59C81",
"iX c #C8A487",
"pX c #D4AC8C",
"aX c #D5B293",
"sX c #DBB393",
"dX c #DDBB9B",
"fX c #DBB799",
"gX c #CEB094",
"hX c #E2BC9C",
"jX c #E5B999",
"kX c #D4BDA4",
"lX c #E6BFA2",
"zX c #E6C19E",
"xX c #DAC8AF",
"cX c #E5C3A2",
"vX c #EAC5A3",
"bX c #ECC9A6",
"nX c #EDCCAB",
"mX c #E7C8AA",
"MX c #F2CEAD",
"NX c #F6CAA6",
"BX c #EDD1AE",
"VX c #F3D1AE",
"CX c #FCD1AF",
"ZX c #EAD6B6",
"AX c #F3D3B2",
"SX c #F6DBB8",
"DX c #EBCFB2",
"FX c #F3E0BD",
"GX c #EFE0BE",
"HX c #D6C29F",
"JX c #89F5CB",
"KX c #EDDDC6",
"LX c #F6E4C4",
"PX c #F4ECD7",
"IX c #F6F4E7",
"UX c #DFD6CA",
/* pixels */
"$.U B.5XqX X@.#.%.M.%.%.#.%.N.V.#.o.M.=X,X-X@.#.C.U o.i 0 8 ; = ; d h W 7. .K P.0XU  X-XZ C.@.X.C.u % Z C.N.F 5 6 7 Z 7 % 5 H.5X",
"#.X.P.6X5X&X%.o.%.J.A.&.&.V.J.{.Z.X.}.6XH.wXF.Z i = 2 = + ; ; 9 d 9 h h h n E 7.@XZ.=X XZ o.C.@.` r 6 u U B.Z 6 5 U Y n.7 V 5XE.",
"X.X.#.B.H.$.&.%. X}.=X}.&.}.Z.%.=X#..X6X$.S.q 2 = - : : 9 9 9 q d d h h x x z x M r.+XX.Z D K %.K r 6 J 4X9XA 3 Z N.7 n.Y V 5XU.",
"#.o.o.V.P.%.o.%.<XV.F.:X%.}.F.%. XM..X7Xt . = ; ; : : : q q d h h f z x h c c v M E 5.9.D Z V.,X&.r 8 I I.0XY % J N.6 P n.A 5XE.",
"#.o.o.%.H.S.o.-.,XV.S.,X%.P.}.&. XA.*.s . 0 : 0 : 9 q q f h h x x x h R n n v n M E 2.4.r.{ +.=XV.t r r J 9XM.% Z C.7 J B.7 E.5X",
"M.o.o.o.F.V.&.&.XX}.>.,X>.S..XS. X-.+ + : ; ; 9 q q q h x v c c R n R R R R R R E E 4.2.5.8._ }.P.t r i Z 6XU.% t B.U G Y o n.5X",
"Y.' o.{ S.F.*.*.].-X|..X-.*.F.|.F.& = > : , 9 q q f h x v n n R R R E ! E ! ! ! 2.2.4.4.2.6.8.]. Xa t a K 6X5XJ 6 S U G 7 O 8 n.",
" X*.*.&.S.P.>.*.-.].|.S.=.:.>.D.L + 9 ; : 9 q q f z x n R R R R E E ! 4.4.4.4.6.5.5.5.4.5.5.d.@X,X*.t i %.*XI.o.t 8 #.J.B.3 V E.",
":XF.*.*.>.F.>.*.=.,.XX[.:.:.D.D.0 ; , > 9 9 q d h x n W E 2.E E ! ! 6.5.4.8.6.j.j.8.8.6.6.6.d.r.}.*.t p D V.H.o.% ' >XA.1Xo.A 0X",
"}.%.} *.|.7XD.=.,.].7XXX:.:.oX,.- , 9 g q d m f z n R 2.E 4.! ! ! 4.v.8.8.v.v.v.c.8.j.8.j.8.j.j.D.D.i a S.H.%.&Xi %.5X7 *XI.J 5X",
".X.X*.>..XwX+X=.w.w.+X$Xw.w.].L < ; s x q d n f h n n E E 4.E 4.4.4.v.8.8.eXv.W.c.d.j.d.c.v.8.c.r..X*.s P.G.a =Xo.%.9XZ U.*XA 5X",
"*.,XD.} :.7X$Xq.w.e.oX7Xw.w.0.+ , 9 q x h q n f f x n R E W E E ! 4.8.9.j.c.v.c.8.v.v.8.v.j.8.v.W.oXZ.[ F.P.t  X%.' 9XJ S.>X3 U.",
"} +X|.} =.$X7Xe.`.`.OX8XoXOXj 2 9 d g g q q d d f z z c n R R E E 4.4.4.8.8.j.8.4.v.c.6.v.6.v.eXb.T.F.{ >.-Xp P.&.r &X&X&XM.* Z ",
"{ .X.X:.:.$XwXoX`.'.#X#X@X`.; ; , ; > s 9 9 9 9 g g h d h x n n R E E 2.4.4.4.2.3.8.d.3.6.4.8.c.c.W.G. .[ }.F.A.p k Z V.m.5 % * ",
"G.XX[.<.`.$X8X#XoX'.OX@X@X0.= : ; ; ; > , 9 9 , 9 q d q q f x x v R n E E R E M R E E M E 3.3.6.c.W.0._ _ ] } ] t t t $.C.Z.% r ",
"].D.:.0.w.oX7X@X'.'.#X#X8X0.= 0 ; > ; ; ; > , > ; 9 9 9 q q q w q x f v c x c c n c c n M M 3.3.8.l.T.=._ _ p D D & o.J.u %XK 6 ",
",.].<.q.`.8XJX#X'.OX8XOX'._ : g - - ; - ; - > > ; > , : : : 0 0 9 9 w f q q f w x w f x c v x n 5.f.Q.4X[ { D a ' r %.K.* A.M.4 ",
"].XX:.0.,.+XJX8X'.OX8X'.'.s < s ; + + + . @ + & + - ; & ; ; 0 + : 0 9 0 9 9 : q : = 0 = + , - z 4.d.W.qX*.[ L k K t ' %X% V.Z.# ",
"*.XX,.0.q.e.8X8X'.'.7XOX'.s > > & w l.h 4.z ; q 9 9 - ; + . . . . .   . ; ; 0 9 f q v 8.v.M g 1 R c.c.qXS.L ] s K t p {.H M.$.  ",
"[ .X,.0.q.q.#XqX`.'.OX#XOXs g 9 @ ~ (.! zX5.c.pXiXuX_.5.j.W.j.6.8.j.!.^._.5.(._.dXz.b.MXVXk.E q ~ d.l.8X,.p ' a D t % X.C.n.7 * ",
"[ |.].| 0.q.8XJX$X'.`.oXoXs 9 > + p.6.8.sX~ (.aXpXfXiX4.lXlXvXhXzXvXbXNXNXl.iXsXnX!.v.cXCX/.2.9 v 6.v.@X[ a p p r & + 8 H.*XB.3 ",
"[ D.].:.0.e.+X7XoXe.q.'.oXh 9 > + h.! !.pX! pXsXaXlXl.c.vXaXjXfXjXzXvXvXCXl.rXjXAX(.j.dXSXiXn 0 z ~ 9.;.j s p V.Z.K . B.5XE.0XY ",
"[ } |.].<.0.w.oXoXoXe.+XoXc 9 ; 0 h.R iX(.5.dXsXsXjX6.iXlXjXjXhXlXvXMXVXSX5.W.zXBXiX8.hXAXdX2.9 q 2.9.' h k F.V.V.&X8 E.4XT 5XE.",
"[ XXXX7X+X<.|.[.w.+Xe.q.w.W 9 > 0 a.v pX/.5.hXsXjXpX5.pXhXfXhXhXzXNXCXVXSX5.W.nXBXdX6.HXAXbX! 0 q x 1.>.k a  X&.i ;Xi U.5XK E.E.",
"} 6X,.].0X<.].[.0.+Xw.<.q.L 1 ; q i.n aX_.5.sXaXsXiXk.aXhXfXhXvXvXNXAXSXVX5.).bXAXBX6.iXSXMX2.& 9 z 1.Z.k k  XV.e =XJ M.0XT E.E.",
"} 6XD.,.wX,.D.|.<.|.D.| | 1.: - w y.b sXiXl.pXaXsX_._.sXfXdXhXlXbXCXCXSXdXd.gXBXVXFXl.).AXMX6.s ; z [ S.e & V. X6 {.D u 5XE.3XB.",
"D 4XF.*.,X*.} |.} D.=._ >.D.1 & z / R sXaX_.sXsXsXiXpXaXsXdXjXvXMXMXVXSXiX).bXAXAXLXrX^.SXnXk.h & q p V.a & u A.+.+.% * A Y.Y o ",
"a V. X>..X{ [ ,.,.:.| <.<.w.g + R y.b pX(./.uXiXpXaXjXzXfXdXlXcXbXMXAXMXjXVXSXbXcXmXuXl.nXdX!.8.+ : ' =X>.a e p &.S * & * 5 7 7 ",
"] } .X-XD.=.0.0.w.w.q.:.e.l.c @ t.y.b 5.v w > & + s M v.jXjXhXbXbXnXMXNX!.! q & , f n E rXsX/.tX. W gX+XZ.i t t H J S e r u y X.",
"] p o.+XG.| } | D.[.<.<.4.u.^ 1 5.a.M g.s.( 3.B v w 2   4.vXcXbXmXNXSX5.  . q b l.(.sXjXbXHX(.HXh ZX_.yX9XK % p ` e X.y % * $.C.",
"] ] }.0X4X} { } ,.[.} } 4.^ i.M ^ s.b ^ z w z x v v b z = !.nXnXbXCXrX: l N v v 1.2.2.5.).sXiXtX( _._.Q.0XK e S X.% S F %   X.L.",
"p ] %.-X5X*.{ { } >.} } 2.^ ^ ~ ~ g.z g 1.W a e r j W g w Q vXbXbXbXa.l 1 1.p % t p r.r.L _.BXtX( HX_.Q.9X&.% u +.e S F *   J %X",
"p D p U.0X%.] ] ' >.*.] ! u.^ Q 3.f.B M 9.xXe.`.#XtXUX8.N w iXMXcXfXa.b v.UXe.`.#XtXIXtX8.pXPXW.t.HX(.Q.,XY.% r X.Z S Z * $ ..L.",
"S D S S.0XZ.K ] ' V.>.' ! ^ ~ b B s.i.3.M '.eX7.e.tXeXl.^ b !.BXmXhXs.p.c.eXtXe.r.tXeXr.^.nXPXc.y.iX/.T.9X4XG % u S y $ % # U N.",
"S D J I.0X4X%.D ' &.&.K 7.t.Q b B g.u.f.b.g.v.c.v.d.5.u.5.^ !.bXmXnX/.x.s.p.c.eXrXrXgXcXmXkXIXv.h.iX~.R.L.H.S % % r y 7 # 7 ;XB.",
"S S K V.&XH.` S ` F. XJ K l.^ N 3.f.i.d.b.lXgXlXuX/.~.iXk.) k.bXMXbXvXuXsX_.uXsXZXgXSXiXZXZXIXc.g.pX/.K ..+.S $ r S 5 F o G 9XI ",
"&.S S %.:XI.J K &. X<X` S  .p.b ^ z.s.3.eXuXsXlXfXfXmXAXg.^ d.bXAXMXMXvXlXjXsXdXZXHXxXZXHXPXIXk.!.pXj ` +.S C.r u C # C 7 J 9Xm.",
"=X$.S A.9X-XH K J &.<X&.S S 1.^ N a.s.u.z.pXvXMXDXvXKXlXf.^ 5.VXSXMXMXMXMXMXMXKXGXGXxXZXkXIXrXu.zXW   M.+.4 C.S 5 F $ y y 7 1XI.",
" X{.C C P.1X..J J ` <X$.S J A 5.B 5.s.i.k.aXlXDXAXAXCXpXf.^ d.SXSXnXCXMXAXAXSXKXGXKXZXGXBXIX^.pX).3 @ +.m.$ m.H 3 F 5 y y X H.m.",
"A.=XG C Z.2X@.S J J ;X}.J F I ,.u.i.s.i.s.iXlXlXMXnXAXuXg.~ k.LXKXMXMXMXAXAXSXSXGXGXGXLXxXPXnXzXY.o % J C.y m.C $ y Z 7 5 o 3 $ ",
"V.%XH C A.0X X..J $.=X{.$.J H +.9.u.f.5.t.z.hXzXmXnXAXz.x./ b.SXLXMXVXMXMXVXSXSXKXLXZXFXUXPXNXyXL.y $ r ..@.I 5 4 # V n.5 X X r ",
"J.{.C ..J.:X{.+.J +.J.{.m.G H A.-X1.f.i.t.i.iXhXlXnXhXk.g.s.uXZXPXNXMXVXMXAXAXSXSXFXGXGXPXZX9.+.m.F 4 4 3 $.m.3 $ y &X0XA O # C ",
"C.` A F $.L.L...F H.;X=X,X..X.A.;X$.7.a.t.t.z.fXfXvXiXf.g.k.pXSXPXSXMXVXAXMXAXSXAXFXGXFXPX7.X u y r 3 3 O.1X3XV $ C K.0X@.X # y ",
"` ..G F {.C.{.{.G -X Xn.9XA.A G {.A.J a.( a.y./.jXhX/.s.k.g.k.aXlX^.bXAXAXMXAXAXSXZXSXFXUXL r H +.` $ 6 G K.9XG $ # V 3XB.o # $ ",
"G +...I %X$.$.<XO..X=XO.,XJ.F G {.L.A 5.u.t.a.s.uXjXpXg.g.g.p.h.z.iXnXAXAXMXAXAXBXSXZXLXyXv F C.S m.y $ $ U 9XY o 3 7 >XU.O $ X ",
"G ....I %XC...=X@.J.1XO.,X{.G I  X;XO.;.s.^ t.i.g.uX~.f.g.g.k.x.vXSXMXAXVXAXAXAXVXBXZXGXE E X.N.r +...$ 4 A 1XB.O 3 7 >X5XY X   ",
"H U +.G {.{.+.%X@.n.1X%X=Xm.F +.L.{.@.F 9.^ ( i.p.s.s.g.g.k.s.~.lXnXCXSXVXVXAXAXSXBXFXW.9 ! o.C.r ` $.r 3 O.0X:XP X P K.I...#   ",
"....+.G $.%X{.L...P m.K.L.P I H m.{.m.G i t.^ t.a.p.h.f.s.a.a.d.^.gXkXcXDXMXVXDXBXFXgXq x ! L C.P ` +.4 3 +.H.m.Z o 3 3 O X X   ",
"O.Y U P P O.C.n.G P @.&X;XY P U L.,X{.P & v ( ( t.y.f.f.s.f._.fXcXKXUXmXnXVXVXnXAXHXb w v R L H @.+.y $ 4 u ` ..Z $ o o $ o X   ",
"N.K.L.Y P N.<X{.U P C.,X9Xn.P P P {.=XA = = b ^ ( y.y.f.g.g.s.k.z.z.aXSXBXnXvXVXzX( d.w z M i C Z ..F 5 % ` m.S N.5 o $ $ 3 X   ",
";X;X2XL.U N.=X=XP I P J.2X@.P P G H.=XH & w w Q / / y.a.s.s.s.s.k.iXMXnXnXnXnXdXQ ~.).= v v 8 y X.+.+.H   X.m.$ m.F # o $ 3 X   ",
",XN.>X;XY G H.<XY U G N.9XN.G U G N.<XX.; : w w Q / t.y.f.z.z.(.zXVXbXbXbXnXpX~ ( NXj.+ l M t $ C.J Z m.$ H C.$ $...# $ $ 5 3 X ",
"1XN.I.1Xn.G C.<XO.P I @.9XJ.P H G A.2XA.i : N l w Q / t.t.(.nXbXcXzXcXnXzX/.Q ^ /.LX4.@ f L 0 o m.X.r C.u u L.C +.H # $ $ 3 4 X ",
"2XN.L.1XO.A m.,XN.H G H.0X<Xm.F H C.{.m.G Z N Q l w Q t.t.y.uXbXzXcXcX(.k.b ^ g.dXZXE . f D i 3 $.m.r m.y $ H $...5 $ O 3 G 5 X ",
";X;X;X%XY U C.<X{.X.F $.L.L...F H J.1XZ.J D N Q Q l w N t.t.y./.iX/.k.y.b Q p.^.xXZXW 8 s K y $ S m.+...r 4 $ I n.3 $ 3 H.5XP   ",
"n.%XK.Y T P m.%X<X+.A +.;X,X@.F X.H.9XU.C L b B ) ^ z 1 l ^ t./ t.t.( l R p.h.HXZXBX1.Z 0 Z y $ C y X.F Z 4 F ;X3XC o F I.0Xn.  ",
"G O.L.$.I G Y L.,Xm.C m.-X0Xm.F S F -X XH K B Q ) ^ ^ b 1 w N ~ ~ b w b p.y./.ZXxXVXL A 8 y Z $ u S X.+.I o U K.9XP $ 3 V 3XH.O ",
"I m.{.=X..G G Y ,XC.F F $.0XC.F J A *X,XP i B Q ^ ( ^ ( B l q w l 1 b i.y.k.kXxXmXBXW G 7 y C 3 $ $.+.S N.5 $ G 9X#.$ $ 3 &XU.O ",
"P G $.;X@.G H P =X{.C S X.6X XP H G m.-.; 1 ) ^ Q / / / ( ) b l w b y.y.a._.DXkXnXVX4.g  .u Z C   $.+.4 C.C $ Z 1XZ.O $ 7 I.5XY ",
"G G ..=Xm.A H P &X=X..C U 1X=XZ 8 t ; 2 - l ~ t.Q t.y.y./ u.( ^ ^ t.y.y.!.dXxXaXnXbXiXz q M s s k +.C.$ m.J # F 9X:XT O G E.>Xm.",
"G G G  X<Xm.J +.{.=Xm.J C.F.j - - - ; ; v l ( y.~ Q h.t.p.y.t.y.y.y.a.h.pXmXgXHXBXmXpX_.g 2 z , f 1.S.F @.Z $ +. XH.I $ 5 Z 5 O ",
"G A #.=X,XC.J m.=XC.C J p - - > ; & - B N l t.y.p.Q p.z.y.y.y.p.a.h.p.(.dXdXrXVXbXnX!.aXiXh . g > c 2.T.o.7 $ 7 C X Z y $ 4 # $ ",
"F F ..C.L.C.I $.=XA.u > 2 > > & + 0 Q Q l ^ y.p.h.l.) /.(.h.y.h.h.p.!.pXhX(.pXVXvXnXpX!.fXiXM & > g x 3.c.[ 8 5 C o y C $ r # $ ",
"G F +.{.C.=XX.t p t < > & > > - w Q ~ Q ^ y.y.h.h./.z.h.dX_.g.h.h.k.pXfXhX/.vXbXbXbXMXaXiXaXuXg + < n z 2.c.8.9.7.i 5 C 4 $ o 3 "
};
