/* XPM */
static char *daee432c5c3a45b7bcc8a01d009987634HGovPxe48DymiHG[] = {
/* columns rows colors chars-per-pixel */
"64 64 256 2 ",
"   c #0A0A06",
".  c #190805",
"X  c #16140C",
"o  c #181514",
"O  c #100F10",
"+  c #230000",
"@  c #290405",
"#  c #380507",
"$  c #261817",
"%  c #381515",
"&  c #362724",
"*  c #2E2322",
"=  c #50130D",
"-  c #6C2B1A",
";  c #573A37",
":  c #4E2928",
">  c #6B3330",
",  c #582616",
"<  c #734739",
"1  c #72504C",
"2  c #7A615C",
"3  c #B53313",
"4  c #853C2C",
"5  c #9B3721",
"6  c #D41E0D",
"7  c #D73905",
"8  c #C73816",
"9  c #D93617",
"0  c #D22F0C",
"q  c #E83709",
"w  c #F43A01",
"e  c #F9281B",
"r  c #E83918",
"t  c #F23619",
"y  c #EA2A14",
"u  c #C83A26",
"i  c #D53A27",
"p  c #D43A34",
"a  c #E83826",
"s  c #F0352D",
"d  c #E21D15",
"f  c #B54811",
"g  c #8D5037",
"h  c #B6563A",
"j  c #B34E31",
"k  c #B76D32",
"l  c #A3662F",
"z  c #CA4709",
"x  c #D74606",
"c  c #C84617",
"v  c #D74819",
"b  c #D9571B",
"n  c #CF560D",
"m  c #E84A1B",
"M  c #F64419",
"N  c #E85617",
"B  c #EA4E0E",
"V  c #D86619",
"C  c #D07014",
"Z  c #E86D1B",
"A  c #CA4729",
"S  c #D84727",
"D  c #CA5729",
"F  c #D85529",
"G  c #C94837",
"H  c #D84838",
"J  c #C95838",
"K  c #DC5C3D",
"L  c #D75638",
"P  c #E94929",
"I  c #F64928",
"U  c #E7572A",
"Y  c #F75529",
"T  c #E74838",
"R  c #F64538",
"E  c #EC5434",
"W  c #E35C3C",
"Q  c #E85837",
"!  c #F75837",
"~  c #D96628",
"^  c #CB7627",
"/  c #C96939",
"(  c #D96638",
")  c #C87836",
"_  c #D9793B",
"`  c #CD6C29",
"'  c #E56728",
"]  c #E6742A",
"[  c #E66739",
"{  c #F6633B",
"}  c #E67737",
"|  c #FA7334",
" . c #964847",
".. c #995948",
"X. c #865A56",
"o. c #8F534F",
"O. c #A85646",
"+. c #B65746",
"@. c #A85B55",
"#. c #B4504F",
"$. c #996856",
"%. c #97634E",
"&. c #BB6549",
"*. c #A86759",
"=. c #B96858",
"-. c #B77358",
";. c #AE6D4F",
":. c #995B63",
">. c #986A67",
",. c #93726E",
"<. c #A76A69",
"1. c #B76A66",
"2. c #AA7567",
"3. c #B97567",
"4. c #AA7675",
"5. c #B87875",
"6. c #B06E74",
"7. c #A35E63",
"8. c #D94C47",
"9. c #CC5C42",
"0. c #C85948",
"q. c #D85946",
"w. c #D65B54",
"e. c #CB5051",
"r. c #E54B45",
"t. c #E75847",
"y. c #F85A46",
"u. c #E75A54",
"i. c #F55350",
"p. c #C76449",
"a. c #DC6345",
"s. c #DC654A",
"d. c #D76748",
"f. c #D97649",
"g. c #C86856",
"h. c #D76A57",
"j. c #C7755A",
"k. c #D87658",
"l. c #CB7744",
"z. c #E46444",
"x. c #EA6344",
"c. c #EB6C4C",
"v. c #E76849",
"b. c #F76949",
"n. c #E97748",
"m. c #F7774A",
"M. c #E86856",
"N. c #F76858",
"B. c #E87658",
"V. c #FD7454",
"C. c #F87858",
"Z. c #C96962",
"A. c #D96964",
"S. c #C67866",
"D. c #D87766",
"F. c #D87879",
"G. c #CB7176",
"H. c #E76B64",
"J. c #F66A67",
"K. c #E97868",
"L. c #FE7C64",
"P. c #F97767",
"I. c #EB7978",
"U. c #F87876",
"Y. c #FF6B73",
"T. c #D95D65",
"R. c #C13F41",
"E. c #CA8637",
"W. c #D88639",
"Q. c #D6872F",
"!. c #E58639",
"~. c #E98F2E",
"^. c #F2942F",
"/. c #BB8458",
"(. c #B98178",
"). c #B28A6A",
"_. c #D78948",
"`. c #DA9448",
"'. c #CB8458",
"]. c #D98758",
"[. c #D89A56",
"{. c #C98D44",
"}. c #E68848",
"|. c #F78849",
" X c #E99548",
".X c #F99549",
"XX c #E78659",
"oX c #F78659",
"OX c #E99656",
"+X c #F99957",
"@X c #F7A659",
"#X c #F0A44D",
"$X c #D98669",
"%X c #C88879",
"&X c #D88877",
"*X c #CA947A",
"=X c #D69679",
"-X c #D18F69",
";X c #E88767",
":X c #FA8869",
">X c #EA9767",
",X c #F99768",
"<X c #E88A76",
"1X c #FB8877",
"2X c #E9977A",
"3X c #FE9B7C",
"4X c #F99677",
"5X c #D7A275",
"6X c #F6A767",
"7X c #ECA375",
"8X c #F7A678",
"9X c #F4B06D",
"0X c #D6A352",
"qX c #CC7C82",
"wX c #ED7A83",
"eX c #A87F83",
"rX c #B68C8A",
"tX c #B795A1",
"yX c #C78886",
"uX c #D78887",
"iX c #D89686",
"pX c #CA9595",
"aX c #D99997",
"sX c #CE8F90",
"dX c #FB8989",
"fX c #E69989",
"gX c #FC9887",
"hX c #E59998",
"jX c #FB9797",
"kX c #EC8C92",
"lX c #D9A39B",
"zX c #D9AC89",
"xX c #E8A788",
"cX c #FAA688",
"vX c #F9B28A",
"bX c #E6A698",
"nX c #FAA897",
"mX c #FCB796",
"MX c #E7B692",
"NX c #D698A8",
"BX c #FB9AA4",
"VX c #E69AAA",
"CX c #DAADAE",
"ZX c #E6A7A8",
"AX c #FCA7A7",
"SX c #FDB7A6",
"DX c #FCA9B4",
"FX c #EEB6B2",
"GX c #F9C496",
"HX c #FDC6B7",
"JX c #F5CAAF",
"KX c #F8BBC6",
"LX c #D0ABCA",
"PX c #FBC5C9",
"IX c #F9D2CD",
"UX c #FFDCE7",
/* pixels */
"nX&X/ XXOX^ E.{.9X@XB.8.J nXxX7Xb.y.L.V.K.9.;XgXjXHXK.h.h.4X4XvXf.n.m.f a.8Xn.XX>X6X>Xf.j @X|.x.1Xj.MXGX`.) $XmX[.[.5X%XF U _ E.",
"MXS.h XX+X) E.`.9X9XL.y.t.nX7XcXx.! V.N.P.J h.K.h.1X+.k.<X8X2X8X].oX:XD s.8XXX4X_.XX]./ D ,XC.t.3Xg.5XGXOX|.>XGX@X>XxX$XF b } f.",
"HX-Xj _.+X^ Q. X@X,XV.i.r.dX;X4Xx.Q V.V.:XL K q.u.U.q.dXxX5X/./.h f.,XJ K :XC.3XXX;XXXd.D ,Xm.F 1Xh /.5X X.X>X8X[.OXxX$Xm N } W.",
"JX5Xh }.`.C Q. X}.m.y.y.T P.B.;Xc.x.oXL.:XH r.i.N.gXP.1X/.%., , = - p.h J :XB.:X3X,XXXf.J cXC.H 4XJ '.5X!.} ].6X X`.>X].b N } !.",
"GX*X&.OX XC ^ W.|.{ R R R 1XB.:XB.x.L.L.:X8.u.N.p dXT.#.- %   . + # O.O.g.gXB.C.3X:XXXf.d.nX3XN.1Xs.2X9X!.] ].cX_.W.'.f.m Y ] ] ",
")./.{.,X+X` C ^ .X[ P R r.1X;X3XH.t.P.L.1Xq.N.U.e.jXT.4 @ +     . + o.*.=.gX1X:X8X4X;Xd.p.mXgXK.1Xd.vXGX!.~ ].vX}.`.2X;XU N } ^ ",
").[.{.@X.X~.Q.C +X[ i T T :X;XvXU.i.M.U.nXK.K.I.D.BX .: @ $ O O o . < > 4 D.K.4X8X4X;Xk.&.cXgXh.1X0.xXGX}.` k.cXOX>XvXgXQ m ] _ ",
"zXzX'.`. X.X#XQ.+X| P y.H :X>XGXwXu.u.U.SXdXuXG.S.5.= # @ o   O o   & # = O.h.4X:X>X;X'.p.SXgX<XgXh.xXGXOX} $X7X`.6XJXcXQ v } f.",
"MX).~.#X#XOX=X'.6X!.x | ! C.B.cX4XK.;XU.DXwXjXwX:.: + X $     X   X X X O $ 1 pXqXgXP.F [ ,XoXU N.h.JXzXm.Q 2XmX) 9XvX,XF ~ :Xp.",
"FX5XE.Q.^._ '.$X+X} x Y E L.;XcX:XK.1XdXPXdXjXqX- # . X X X   X   $ o o O O :  .kXgXB.D F | m.Q N.A.JXGXoXc.3XmXE.@X4X;X( [ :X( ",
"IXzXE.~.@X/ g.<XoX| B Y Q 1X2XmX<XK.dX1XDXI.jXG.@ + X X X X O o   X O O o . = > <X;XC.F S [ { Q P.h.JXzXoXn.2XvXE._.k.k.W U C.J ",
"LXJXE.#X9Xf.p.H.:X|.N Y Q gXMXmXgXK.1XI.AXF.jX6.+ @ $ X   X O   X X   O o . # - O.B.C.x.b.C.C.L P.h.GXzXoXx.2XvXE.W.f.M.Q U m.L ",
"tXIX0X{.9X_.D.g.XXm.m Y H gXmXmXgXK.dXK.BXqXwX:.+ $ $ .   O O   o o X . o . # = j k.C.( C.cX3Xq.dXD.JXzXoXc.cXmX`.+X;X:X[ U C.c.",
"rXJX{.E.OX].SXiX].n.b U r.gXhXnXdXA.dXdXBXqXqX> + o O   O o o O X X X X $ + # - &.:XoXF n.mXmXh.1XM.JXzXn.[ 3XGX[.6X8X:X[ U C.v.",
"pXJXl 0X X[.IXJX]._.D E u.dXgXnXdXH.jXjXBXwXqX# . O O O O o o $ $ & * % @ @ , O.$X4XoXD f.mXmXh.J.w.MXzXz.F >XvX`.6X8X;XF F oXJ ",
"CXMX^ 0X0X/.IXMX-X'.F b.N.dXdXjXjXY.wXwXBXqXsX# @ O * * o o $ & 2 1 ; % + @ - D.1X4XoX/ B.cXcXj.N.q.JXzXm.L $X8X`.9X8XK.` ~ ;XJ ",
"UXCXl k OX'.HXSX7XXXv E u.jXnXAXkXwXBXBXDXsX7.% % o X o * X & X.(.*X2.X.: . = 1.uX4X,Xz.V.3X:Xz.:Xh.IXFXXX' 6XvX`.6X4XoXN N | J ",
"PXbX) ^ @Xl.SXfX7XoXF Q u.jXjXAXdXI.jXjXDXkX:.@ X X   O X $ ; >.*X=X%X4. .= = @.<X1X,XL L :Xb.K :Xd.JXlX( b >X6X_.XXB.n.N N V.L ",
"aX=XC Z +X/ 2XS.2X+XU ! r.dXBXAXjXI.dXkXKXkX:.. . o O O % ; 2 rX=X2XiXiX4., = O.3X3X3XQ S m.x.W :Xp.FXpXa.F >X8X_.XXf.v.N N b.H ",
"G.k.C ~..X` &XZ.;XoXF Q 8.dXkXDXjXI.dXdXBXqX:.@ X & & * ; X.(.lXiX=XiXfXsX4 = j 3X8X,XU F C.b.W L.p.FXCXc.' ,X8XXX,XK.b.B B b.8.",
"S.k.C ~.@X_ gX&X;XoXF Q t.dXAXSXjXwXjXdXBXqX .@ + ; 1 1 ,.rXsXlX=X%X*XuXiX..= j B.C.m.U Q ,XC.z.L.w.PXCXn.' >X>X].4X1XC.N B m.t.",
"&X].C ~..Xf.nXhX<XoXQ y.u.dXnXSXgXU.jXdXBXqX .# # ; 2 ).rXaXpXaXiXiXiX(.aX*.= J ( ( [ S m.cX1XM.L.h.IXPX:X( >X7X_.,X<XC.N x V.u.",
"lX=XE.Q.+Xg.DXbXfX:XK y.u.dXgXnXgXU.dXdXBXwX1.= # ; 2 ,.lXCXVXhXlXlXlX2.pX3.= g.f.z.[ F C.mXgXM.P.Z.UXIX:X[ 7X9X{.>X<X:XN x c.w.",
"FXMX{.W.7Xj.FXVXfX;XL Q r.U.gXcXgXK.dXwXAXjX6.= % ; 1 4.CXFXVXDXlXFXCX,.sXS.- j.;XC.C.L M.gX1Xh.d.&.IXIX;X( 7XGX-X8X2X:X~ b v.0.",
"CXSX}.W.@X{.MXzX8XOXm E R wXwXdX1X1XjXdXAXjXqX .: % ; :.eXpXZXCXFX,.X.2 1 rX< $.xXvXgXJ K cX1X{ m.n.7X'.|.n.5XGX`. Xf.f.` V { v ",
"NXNX].Q.OXk fXiX8XoXm ! r.U.wXjXI.H.U.I.BXjXqX7.% : ; 1 ; > 4.NX,.& : ; ; >.< %XbXcX4X( F V.! P V.s.2X'.n.} *XmXOX} a.B.' v Y P ",
"tXCX-XE.>X&.kXuX4XoXS U r.U.gXnX1Xu.J.I.BXjXwXqX: ; 1 ; % % 2 pX>.: : ; X.2.%.iXxX2X4Xd.L Q P t.N.e.fXD.x.W &XxX.X' L N.{ x I I ",
"LXKX-X[.2Xg.BXVXK.c.v ! Q 1XfXnXdXu.J.J.BXwXqX6.1 1 ; ; ; 1 X.rX>.1 > > < (.*.-.cX<X:XM.W t.P b.P.F.IXZXP.v.bXGXoX[ L C.' x ! R ",
"LXCXl.k >Xg.AXBXj.z.v E H P.$X4XP.r.u.J.wXT.#. .:.o.< ; 2 >.<.yX4.X.o.< *.%X%X+.4X1X:XK H b.E G A.1.UXFXk.h -XzX_ _ K s.F b Q S ",
"NXaXl f f.&.VXhX+.J 8 S u u.p.D.u.H r.u.wXe.#. .:.<.X.1 >.>.6.aXlX2.$.2.fX=X&Xk.g.h.B.3 8 V.Q 8 e.O.FXzXj 3 -./.^ ~ J 9.D D v.i ",
"G.H.f f _ h aXpX-./ f a 6 r.8.M.u.H u.u.Y.e.#.#.:.yXeX5.pX5.5.AXiX*X%X%XnXS.$X&.h J s.8 A :Xb.H J.e.SXnXU S ;X>X~ V S q.F A i.H ",
"R.w.c n }.&.bXlX=X;XF E p i.N.P.M.M.P.u.Y.w.A.1. .qXsXpXFXuX1.uXyXbXSX=XbX=XgX0.h.M.P.L W L.V.t.U.8.nX1XP I 4X:X| N S N.b.P i.i.",
"b c b Q C.l.7X].,Xm.i I i N.k.<XK.s.B.H.jXA.T.wX@.5.aXZXVXyXqXsXpX).iXaXnXnX1Xw.8.t.v.i Q 4XoXU b.t.DXsXb.Y | @XZ n t.J.P U b.q.",
"] n v [ oXp.2X].XXc.9 R a c.B.4XoXs.s.M.jXH.T.Z. .5.NXFXaXyXuXhXlXzX*XbXxX<XA.h.:XP.C.H F V.b.b.V.L.KXVXN.I ] ^.Q.~ K.J.E ! N.q.",
"Z n b [ XXJ >X].XX[ 9 M r b.f.;X4Xd.s.M.jXJ.g.#. .1.lXFXsX4.yXNXbX%XS.bXnX&X$X2X3X:XL.Q S ! E y.V.J.PXVXP.I ] ^.Q.Z :XP.v Y b.G ",
"C n ' ~ f./ 7X].XX} 7 I r { f.>X3XB.M.M.cXU.H.h. .1.yXaX(.>.<.5.5.*.@.S.%X-.-.;X;X;XoXL S y.R I P u.KXLXL.[ !.#XQ.~.1XH.c U c.A ",
"n Z Z V ( l.vX].XXc.m I I b.|.4X:XB.M.q.1XJ.P.I.#.@.*.(.eX4.>.<.5.1.3.3.j.-.&.&.XX:X:XS S L.y.a 9 L KXVXJ.{  X@XQ.|.gXU.S ' b.S ",
"C Z !.n ` p.cX$Xk.W y I t b.n.,XB.v.t.H N.r.u.J.G #.*.3.5.4.6.4.rXyX%X5.-XD.f./ :X4X:Xc H 1XL.S m x.KXVXN.U  X@XQ._.1XU.v Y b.S ",
"C C ] F p.&.xX2Xh.t.0 s y ! ( XXC.u.t.i i.T r.r.j #.=.1.7.7.4.rX4.>.$.<.S.g.9.K V.C.C.S Q 3XL.H m b.PXVXN.E XX6XQ./ K.H.m m E v ",
"C n ~ [ B.+.xXnX<XP.s s a ! ( B.L.N.i.p N.s T 8.u 0.D.S.:.o.<.NXtX,.$.(.<Xk.t.V.P ! b.Q b.4XB.L q ! KXVXN.! +X9XW.` H.J.I Y ! P ",
"Z Z n Z Z ( <XnXgXd.7 q w I t.J.J.8.N.t.1XN.s s i 8...).rX:.qXKXlX(.(.%X&Xj.k.3XL L V.8 ! vXV.P S M.PXgXY.y.OX^.] N [ M.G t.b.x ",
"b V B Z Z D $X&XgXv.v B M I i.P.P.q.t.H 1Xv.p s i.H.*.).rX:.6.tX(.(.(.yX&Xj.h.B.A F V.S P :XP 9 i K SXgXY.Q _. Xn ' C.P.G H { U ",
"n ' N N b J $X$X2Xq.9 B M M ! J.1Xt.t.H U.M.s s s H.%.).4.<.4.6.4.(.yX=XF.D.B.:XK W C.! E b.9 9 S G AXAXU.T ^ #XV | L.N.M.P.{ x ",
"7 V B n b ( 4XfX;XL 7 w M w T N.1X8.r.H L.i.s s p f.g %.4.qXyX6.5.%XuXS.j.;X1X:XC.{ V.! P Y r E F q.SXAXY.r.^  XZ |.C.M.J.L.b.0 ",
"8 b x 7 z ( gXjXk.A 7 w w q P u.N.G H u B.t.y s s J...%.<.qXsX<.5.iX&XS.g.h.;XC.V.E ! I I P r E t.K.SXjXu.u.) E.V |.1XN.u.u.E m ",
"b N z x c ( gXnXK.G 7 w w q P b.N.p T 9 N.Q y s R N...< >.qXsX5.%XuXiXS.k.h.z.L { P P ! ! I r 9 V.gXHXfX8.U.XX`.] m.C.M.w.u.P 9 ",
"F U 7 x v L 2XnXD.F 0 w w w R N.L.8.r.i c.Q s s s M.l < *.5.sXuXyXuX&XD.D.h.K S { E I ! { M M r C.gXFXfX8.dX9X#X|.F t.N.H.J.t.0 ",
"v v 7 v b J <XnXH.S 7 w w q P N.L.Q y.8 q.H e R s c...o.*.1.yXyX&XS.=.+.0.9.J H b.{ Y Y Y t I I M.<XiXqXe.gX7X@X] b N.dXu.t.b.U ",
"q Y z z N F `.{._.D q y q 7 B Y | c { M a s R p N.w.+. .o.$.,.).%.;.;.l.k.p.J W b.! P I Y I r r a N.vX;X[ m.[.9XW.}.,XJ v.L.N.i ",
"7 N z n v v `.{.`.~ q e q q M Y ! 9 ! r I a s H q.+.O.O...o.< < g g ;.-.k.0.3 A b.E P I I M q r p B.GX8XL [ [.5XOX}.|.j n.:Xi.u ",
"z v F ' 9 F 6X[._.F t e t q M Y Y m ! P y.T H q.5 5 g *.*.o. .4 g l ;.-.'.p.j A Q E P I I M q r p H.JXvXL z.[.0XOXm.oXf ( V.y.i ",
"v c [ } c L 6X6Xl.F t e e q q M s I y.i N.Q j 9.4 - < ..*.*.@.@.%.;.-.j.j.p.J s.x.Q Y ! ! I M a H M.JXmXt.C.9X[.} n.+Xc F W t.a ",
"c f } n.8 F OX7X/ A e e t r q r a a y.i u.u 5 h l < < $.-.*.@.#.*.;.-.-.j.&.+.s.z.W Q ! ! I t a T G cXcXy.oX9XOX( ' m.j ( c.t.S ",
"z 3 n.c.S L ].7Xp.u d e s r 9 P P p y.i r.u j +.l 4 g $.2.*...O...-.-.j.'.&.h f.a.W Q ! Y t t t i.u k.;X! V.,XOX_ F ( f B.3XH.u ",
"c c m.b.P t.p.>Xk.A d e I R P Q v.G N.8.q.G J 0.j 4 g *.2.$.%.*.*.3.3.'.S.&.&.k.v.a.Q ! I a t t N.P ( ( I ! n. Xm.( m.J ;XgX1Xe.",
"8 8 c.x.R Q j XX;XL d e T Q ! c.c.j N.8.H u w.w.&.g 4 $.2.*.$.3.-.3.-.*.;.h &.;XB.M.x.! ! t t s 1X! ( F I I ` OX|.V.cXk.;X$XF.A.",
"f f b { :XA / ( } E 6 y 9 i.w.w.9.L G L J q.J 9.9.j j O.=.3.1.@.*.1.S.=.+.0.k.B.B.c.c.b.t.t.K H jXw.wXBXF.Z.XXn.n.oX1XJ.8.r.y.! ",
"n z 7 S V.A d.k.n.[ 9 a a y.c.P.q.J J J K a.d.9.d.+.h +.&.1.-.=.=.S.g.=.0.h.f.s.c.c.c.v.v.W W q.1XA.kXDXwX&X>X_.f.OXgXA.R.8.v.P ",
"n B 7 S V.0.;X2Xj.d.8 a r ! x.B.9.9.J 9.d.a.a.a.d.p.0.+.&.g.Z.S.S.j.g.p.h.B.M.s.c.c.c.x.v.v.t.q.k.k.kXAXuXfX7X_.E.>X3Xh.#.h.C.D ",
"x B q P P.w.uXiXF.p.3 6 0 Y F L K d.q.q.a.a.a.a.s.s.d.0.0.g.g.Z.Z.g.p.p.k.B.B.z.c.c.c.c.v.v.v.s.B.k.<XkXI.F.OX_.W.XX;XA.8.N.V.F ",
"z x z 9 J.0.&X=X2Xg.3 9 9 ! F D p.J 9.d.a.a.( K q.a.s.s.w.0.g.h.p.p.p.d.h.c.c.n.c.c.c.v.n.v.h.v.oXz.w.H.H.h.n.+X|.} M.u.u.N.b.P ",
"n D A u u.h D.D.XXL 6 0 y y.J G J 0.9.a.a.a.t.K K W v.v.v.s.q.q.9.9.d.v.c.z.v.C.m.c.v.v.s.M.s.v.C.Q 8.u.w.L } 6X.X[ q.H.u.r.T v ",
"j.].p.L H.G f.d.( S 6 6 d r.G +.0.p.9.a.s.a.( L [ W t.z.x.t.s.q.q.t.z.C.c.c.[ c.c.c.c.v.s.h.h.v.c.[ q.M.B.d._ .X!.} B.H.e.H P v ",
"/.&X$XA.:XJ D c b N q t 6 p #.#.0.0.9.d.s.z.t.L x.t.W W t.M.v.M.c.v.c.C.C.b.[ x.m.n.v.z.a.d.d.d.~ |.B.H.;XB.^ Q.^ _.,XH.h 9.[ D "
};
