/* XPM */
static char *_c35cd4c07f34513fea11a0c67a2ee7dr2Oqicos6KyyaGp1[] = {
/* columns rows colors chars-per-pixel */
"64 64 255 2 ",
"   c #0C0B0C",
".  c #050908",
"X  c #120D0D",
"o  c #170609",
"O  c #011C0C",
"+  c #05130C",
"@  c #15130D",
"#  c #0D0D11",
"$  c #110E12",
"%  c #190E17",
"&  c #041512",
"*  c #0C1413",
"=  c #021D13",
"-  c #0C1A1A",
";  c #131314",
":  c #181719",
">  c #261413",
",  c #00260C",
"<  c #022C1B",
"1  c #062518",
"2  c #16241D",
"3  c #02351B",
"4  c #191C24",
"5  c #261C2A",
"6  c #092A23",
"7  c #172728",
"8  c #033423",
"9  c #083829",
"0  c #15332A",
"q  c #173935",
"w  c #103534",
"e  c #25262A",
"r  c #262935",
"t  c #263838",
"y  c #372E2E",
"u  c #37231E",
"i  c #532E29",
"p  c #693631",
"a  c #4E1E22",
"s  c #014C2D",
"d  c #05452A",
"f  c #02562D",
"g  c #094935",
"h  c #154739",
"j  c #035333",
"k  c #025A34",
"l  c #025C3B",
"z  c #0B5639",
"x  c #15533D",
"c  c #13422B",
"v  c #2C493B",
"b  c #02643C",
"n  c #016A3E",
"m  c #046336",
"M  c #066A33",
"N  c #004E1C",
"B  c #6E433A",
"V  c #59423C",
"C  c #2E3644",
"Z  c #1B4A44",
"A  c #0C5A43",
"S  c #175846",
"D  c #175E52",
"F  c #274846",
"G  c #26564C",
"H  c #285A53",
"J  c #37585A",
"K  c #344C4F",
"L  c #036542",
"P  c #086A46",
"I  c #156749",
"U  c #067549",
"Y  c #1B6A55",
"T  c #0A7954",
"R  c #177857",
"E  c #13724D",
"W  c #266657",
"Q  c #35645A",
"!  c #287156",
"~  c #385C61",
"^  c #1D7B63",
"/  c #3A6865",
"(  c #297964",
")  c #37766A",
"_  c #317269",
"`  c #42565C",
"'  c #4C5153",
"]  c #754E46",
"[  c #486253",
"{  c #4F5867",
"}  c #47686A",
"|  c #497774",
" . c #516E74",
".. c #736C6E",
"X. c #713849",
"o. c #8A5953",
"O. c #975C56",
"+. c #8B514B",
"@. c #A65354",
"#. c #8A6457",
"$. c #996358",
"%. c #A2675C",
"&. c #9B6866",
"*. c #907172",
"=. c #A86B66",
"-. c #AB776A",
";. c #B5786B",
":. c #A97774",
">. c #B47C72",
",. c #B97A76",
"<. c #B2696C",
"1. c #A75C67",
"2. c #C87174",
"3. c #CB566E",
"4. c #068757",
"5. c #148559",
"6. c #05965D",
"7. c #0C8750",
"8. c #258357",
"9. c #0A8D62",
"0. c #188965",
"q. c #099867",
"w. c #189769",
"e. c #1A9B73",
"r. c #0E9F78",
"t. c #278769",
"y. c #358269",
"u. c #24976C",
"i. c #378976",
"p. c #299878",
"a. c #35967A",
"s. c #298A72",
"d. c #09A46B",
"f. c #0BA774",
"g. c #19A777",
"h. c #19B378",
"j. c #14AD72",
"k. c #24A87B",
"l. c #2EAF76",
"z. c #46877D",
"x. c #54887A",
"c. c #4B9573",
"v. c #4F9D74",
"b. c #33C97B",
"n. c #AA8378",
"m. c #BA8478",
"M. c #BC816F",
"N. c #89957F",
"B. c #C58579",
"V. c #CF8672",
"C. c #597D84",
"Z. c #667985",
"A. c #B57E82",
"S. c #937B87",
"D. c #D97589",
"F. c #3A9983",
"G. c #2C9D81",
"H. c #1AB986",
"J. c #12B582",
"K. c #29A884",
"L. c #37A788",
"P. c #27B787",
"I. c #39B694",
"U. c #30B78D",
"Y. c #489988",
"T. c #55968C",
"R. c #528E8A",
"E. c #6C9093",
"W. c #56A998",
"Q. c #48B698",
"!. c #4FAE91",
"~. c #66A79A",
"^. c #52BDA6",
"/. c #6EB3AA",
"(. c #1AC587",
"). c #14CE92",
"_. c #27C68C",
"`. c #29C895",
"'. c #37C896",
"]. c #28D496",
"[. c #38D59B",
"{. c #31CE8C",
"}. c #30E399",
"|. c #3BD7A5",
" X c #2DD6A5",
".X c #3CE5A9",
"XX c #39F2AC",
"oX c #47CD96",
"OX c #4BE69B",
"+X c #55C9A9",
"@X c #46D8A6",
"#X c #54DBA6",
"$X c #4ECAAA",
"%X c #6CCCB4",
"&X c #47E8A9",
"*X c #53EEAF",
"=X c #6CEDB8",
"-X c #71E9C4",
";X c #67DDC2",
":X c #92908F",
">X c #B98788",
",X c #B08C8C",
"<X c #8EB2B3",
"1X c #AFB2B6",
"2X c #A9A69E",
"3X c #C68886",
"4X c #D58C8A",
"5X c #CA948A",
"6X c #D4948A",
"7X c #CB9594",
"8X c #D79A98",
"9X c #D08E91",
"0X c #E39B99",
"qX c #E5869A",
"wX c #D9A29C",
"eX c #E3A49A",
"rX c #D89EA2",
"tX c #EA9AA2",
"yX c #DBA6A5",
"uX c #CDABB0",
"iX c #E5A9A8",
"pX c #EBB5B7",
"aX c #EAB3B2",
"sX c #83DFBA",
"dX c #AEB9C7",
"fX c #CEBACE",
"gX c #F0BDC2",
"hX c #BED6E3",
"jX c #A3DED5",
"kX c #CCC7DB",
"lX c #D7C7DB",
"zX c #D5CAD7",
"xX c #EBC8D1",
"cX c #D8CBE5",
"vX c #DDD4EB",
"bX c #D9D5E8",
"nX c #DCD8F2",
"mX c #CDD0E6",
"MX c #E2D5EC",
"NX c #E4DAED",
"BX c #E8D8EA",
"VX c #E4DCF2",
"CX c #EADDF2",
"ZX c #E6D6F4",
"AX c #EAD4ED",
"SX c #D7E7F8",
"DX c #ECE2F5",
"FX c #EEE5FA",
"GX c #E9E8F8",
"HX c #F1E5F9",
"JX c #F3EBFC",
"KX c #F6E7F8",
"LX c #F8F2FF",
"PX c #E7E6F3",
"IX c #EFC0BA",
/* pixels */
"5.l 4.*X=XP.T I R 5.R I T T 9.0.E I R ]..X'.U E f.U w.4.l d.I U w.n j P (.P 9 w.*XL U.{.d u.T P q.7 1 s q.d.d 3 , 3 g < 1 , j.OX",
"P E w.#X*Xl.R E T g.e.R Y 0.g.k.p.P U.@Xq.=Xu.P f.P 5.q.I f.U n g.b c z J.U c E *Xu.{.P.9 U 4.7.b 6 1 3 n 6.d 2 3 n b 5.3 3 OXb.",
"P I E 6.w.7.I R _.P.P.g.W g.f.0.`.U P.$XU $XI.U g.E T w.S 9.0.P r.L h P P.w.z g p.).(.l 9 9 h R c 9 1 z oX*Xf 2 g 4.3 7.I M OXl.",
"I M E 5.k.R I R `.5.K.'.! P.g.H (.5.L.*XT Q.@XP g.T E 5.g A Y S R I A I R R z g c g.H.^ h h t. XR < 1 z h.*XM 1 s 6.2 b 7.N OXb.",
"R M G U k.( Y ^ @X^ s..X! k.K.Y `.0.t.=Xe.@XU.x R L h g < 6 q 7 0 6 6 9 w h h v ^ U.g.&XG Z T  Xt.- 7 0 j .X0.@ q d.3 j 7.N oXOX",
"R I I I u.t.Y Y '.G.0.'.( t.U.0.K.( Y Q.@X[.R 2 6 < - X + ; % - 5 & * - r w 0 & ^ `.A $Xp.q w K.p.7 6 1 c #Xu., 2 6.L x M , M OX",
"u.I I I t.u.! W G.^.K.I.( W F.G.s.! W L g.e.9 2 $ X   X X % : 4 4 & % - e 6 0 0 Z G.H Q.K.q w G.U.6 6 w z #X#XE 2 s M m 3 @ 2 7.",
"P.H W W t.k.( Q ( G.K.i.W ( _ ) s.( G s.'.( 7 . $ % . *     ; : ; & % % % - r t 4 Y D U.I.C Z F.|.W 7 0 R {.l.m 1 2 I h.8., N b.",
"@Xw.G W t.s.( / ~ ( I.F.} ) i.i.i.p.Y a.t.2 & X . . $ ; : $ $ $ ; - X X   # 7 t 0 S w ^ i.F H G.F.Y 7 7 h 0.w.I : x ].d.&XM m *X",
"k.R W W F.%Xp.Q ) Y.+XQ./ / F.i.) F._ S 9 + ; % . . $   ; * ; 4 : : ; X $ * 7 - 5 q 7 w W K K ) F.t.9 t ^ k.R H.8 5.OX1 oXv.f *X",
"U.L.Y ( Q.;XL./ _ z.W.^.|  .z.z./ F.y.t % X     .   @ $ : * $ : $ : ; ;   . * * * 7 t r ^ / } Q._ '.Y e F.p.0 {.I E *XN l.{.N #X",
"Y $Xa.W ( +X^.| |  .T.+X|  .R.T.| F._ 5 % $ . * X X : $ 4 $   $ : ;       # * * . 7 Z w A p.R.I.J s.t.t L.k.7 H.! z &Xf 6.{., l.",
"H $XF.H ~ /.%X} C.C.R.;XY.| | Y.R.i.H ; .   $ #   $ %   ; $   ; : ; X $ ; ; ; * 4 4 7 Z q ( C.$X~ ) K.F ( `.h H.Y 1 `.{._.y.+ d ",
"H U.L.} ~ ^.;XT.C.Z.~.%XW.E. .R.| R.J 7 - X X o X X :       X : $ : : $ X : @ X * : 7 Z 5 H C.^. .) a.K t U.p.s.Z : g 5.4.1 * + ",
"a.L.Y.Q _ %X;X~.Z.Z.E./.~.E.Z...T.Y.} t * o @ > ; X ;       X % : $ $   ; e X . $ * 4 Z r Z / R.W.p.S t t C H q 4 4 0 T 6.w.2 1 ",
"G.F.J ~ | T./.~.Z.Z./././.~.Z.C.E.Y.| C # > + - @ X @   X X X . : # $   X ;   X o ; - 6 H _ { { T.Q.0.[ C q Z z Z % z g.9 ).x 1 ",
"( F.~ ~  .%XjX+XZ.Z.jXZ./.;XZ.Z.C.R._ C 4 # # % @ @ > > u u > > o o > o u @ @ . - ; & w S ~ { R.=XoXOXoXv Z v 0 S : R h.% w.4.- ",
"Y.I./ ~ | W.-X%XZ.Z././.Z.%XZ.{  .R.| F 4 4 o > p +.o.o.O.O.%.=.B ] o.] p a i i u i 4 Z Z { ' W.sXy.b.sXQ F h r x 1 G (.+ 0.q.- ",
"W I._ { ` | sX%XZ.Z./.^.Z.;XC.C. .R._ ~ ; > X.p $.M.5XB.5X6XeX0XeXeXeXeX8X6X3Xm.,.+.7 F D | ' W.sX[ 8.=X( F z 5 z 9 q H.l 5.R . ",
"H I.z.J  .| ~.sXC.Z./.%XE./.Z.Z. .i.R.~ % u @.1.m.5XyXuXyXiXiXwX0XeXiXiXiXiXrX9X,.O.r w D | ' R.=X8.8.=X_ t I 0 q 5 ; E q.7.3 X ",
"Z L.F.~ { / %XsX/.C.C.C.T.R.} { } Y.!.G 5 i O.;.5X8XyXyXyXiXiXiXeXiXaXaXiXyXyX7X2.$.y q y.F.F } =X#Xl.=Xv e 7 w 0 : @ , g.{.7., ",
"K ) L.~ J  .%X+XW.~ { R.W.W.R.{ T.-X=X_ : u $.;.B.5XwXwXyXiXiXiXiXeXiXiXiXiXyX5X;.%.r 7 ) $X/ C c.oXu.R r 5 w ( e.z + u.OX{.=XM ",
"C D I.F.~ ` ) Y.R.R.C.T.R.^.^.{ | oX=Xy.+ u O.M.>X7XrXyXaXiXyXaXiXiXaXaXaXeX8X7XB.O.y r G i.K C y S ^ I 5 5 9.e.0.P.@ b.OXM =Xl.",
"Z W.'.$XQ.J Y.Y.| ^./ ~ C.-XW.J | +X#Xa.0 i O.,.,XrXiXpXgXpXpXgXpXpXpXxXxXpXyX8XB.=.t 7 C G C C F ! g.( 4 5 _.Y 0 ].N v.OXN b.b.",
"H *X_ F.;XY F.F.J Q.i.` _ ;XQ.J y.-XoXoX! i =.#.....] S.7XaXaXaXaXeX>XA.*.S.*.,X1Xm.] q Q ! r r C 4 9.e.: - L.t.6 _.A 5.*XM b.b.",
"W @Xs.) ;X_ F.L.` F.C.` H %X%X_ G !.=X*X! i +.] *.*.o.o.:.5XwXaXeX3X:.o.*.S.S.&.:X<X..t Z W Z r r % S K.e 4 5.(.6 H.c 0 OX}.}.8.",
"Z '.G.D @X/ H F.H s.D C ) $X$Xp.F S p.v.V p +.-.,XA.S.:.$.,.8XaXeXB.-.,.>X7X8X9X>X1XE.t ..Q r 4 4 4 h q.6 % 0 q.Y U - * f 7.U , ",
"w t.K.^ K.G K ) ) _ ~ K ~ ) F.H F F t.~.+.B &.B i i p X.+.;.8XiX5Xm.o.#.i i p o.M.1X<X#.2...0.U.C 4 S '.^ 4 4 w P 9 - . @ c , @ ",
"F H Q.oXa.H ` J C._ } }  .Q.Q.$X} Q #X/.@.] $.$.:.>X>.$.O.<.2.rX4X;.O.=.=.>.;.&.V.1XsX&.@.<.].y.w q g w.s.0 2 0 A x h = 7 w d L ",
"Z h P K.v.H H / ) F.~ J R.^.~ ^.z.H t.v.2.O.-.V.9X9XA.;.;.2.4X8X6X3XB.,.>X7XwX5XB.uX<X-.2...H.K r 4 Z &X=Xg 4 w A < A w & & T q.",
"Z S a.=XoXS G J _ s.~ J F.|.D Q.I.F G c.@.+.M.0XeX9X8X7X,.,.4XiX0X4X8XiX0X0X0XiXV.2X1X,X2.!.*X0.7 q q K.*Xm : w L - z j *   P f.",
"w Z R '..X! G F H ( Q Z _ $XH G.U.F S a.%.$.;.wXaXyXyX5X>.,.8XiX8X4XwXyXaXiXiXaXeX2X2X2.2.y.'.a.6 0 - z *XE & g Y , c j : . z ).",
"h g q l.#X5.h Z S ( W Z H '.p.K.p.q ! '.:X<.n.eXgXpX7X,.<.2.rXaX6XB.D.3XiXpXxXgXeXwX:XV.2X< P.U.7 0 * g &X8.% 2 L d s g & = P d.",
"9 x c t.*Xu.h S Z t.( S Z ^ e.e.D F z T c.<.3XwXyX7X=.2.<.9XgXgX0X8X4XA.8XpXpXaX5X,X5XiX[ & K.'.d 4 = P *X}.L 1 8 g d + # # n q.",
"S 9 s k.*XoXR z D E D h Z Z Y R g h x 0.{.x.=.6X9X] =.,.:.:.3X7X7XA.9XrX;.B.eXeX5X,X<X:Xq w g.*Xr.7 - E h.e.c - * 3 8 9 & 0 ].7.",
"g x x 9.b.l.x h A p.K.A A Z R P.I h g P h.u.=.5XO.1.3X,.A.9XA.A.3XrXiX7X8X<.6X6XM.n.b.U : Z 9.9.A 6 * 9 U L A + 8 s < k O l &XM ",
"T g 9 T @Xk.z x P U. XA g S S r.P d S q e.g.$.m.O.%.3X,.9XtXiXqX0XaXrXrXyX3X-.4XV.:XE 3 w 6 Z w.g = & A R j q.8 6 s @ d < m &X7.",
"`.T f q.&X'.b s Z P |.I z z c q.T d z 9 s.J.' 2.-.p p O.<.A.,.,.<.D.A.A.O.<.5X4XM.*.c m 8 9 L f.L 6 & T T * q.s 9 j , s 9 < &Xh.",
"P.P.s j g.&XE s z l [.T d A h q.9.z g j g.).! <.B.=.a a 7X>X3X,.7X7XyX1.a 3X6X,.M. .8 P g 7 < 0.E & 4 T 4.= 4.A O x , 8 g + r.7.",
"r.P.k d w.&XT j g L I.h.z z l q.f.P s z T 0.U #.,.,.<.a ,.xXpXgXxXgXA.+.9XwXV.B.-.Y 8 j g 6 - R 9.= # j r.9 U z + s 0 < < * < , ",
"9.`.A s w.*XP.n l T `.P.U j A P R l x s R H.L ' ;.;.;.@.3.8XyXuXrXD.3.2.8X8XB.;...U 8 z l < 3 P r.g & 8 U P m , 1 O d E 3 + + < ",
"g.f.l z k.|.h.T k U j.H.9.A b e. XL s b R `.4.f #.;.m.<.3.qXqXqXD.D.D.9X8XB.-.m.*.M j j j 2 6 T 4.s 2 - < 4.5.< O 0 _.XXk . O g ",
"w.L k k 4.f.j.L s g.'.(.|.P l w.`.T l k j f.d.s [ ;.m.n.<.2.D.D.3.<.A.7X3X>Xm.>...3 s j 6 1 8 8 9 8 1 & U &X.X3 * j j.&XE O & 9 ",
"L l k k g.9.H.P.b '.U.4.&X0.l k ).9.j l g e.P.j v -.m.m.>X<.1.@.,.,.3X9X6Xm.>.;.*.I 3 < 8 < 0 9 A d = < l h.OXk = O N OXw.O = * ",
"k E L k `.T T ).b _.{.U @Xh.k s U.d.g k L q.J.4.] -.n.,X7X7X7X9X9X7XwXeX8Xn.M.B.*.x.E.S 8 9 3 3 l 9 = < X b &XU 1 @ , {.j.O @   ",
"l n U n `.q.U  X7.j.].4.[.j.k n H.).4.k l G.~.| B <.n.m.8XyXiXqXtX0XiX8Xm.n.m.>.,XQ :XGXH < 6 1 j 9 = 9 1 s XX7.O , N {.OXM O . ",
"b n P l J.f.U ).P 4..X(.[.T b P K.f.L l A <X2Xy ] =.-.>.D.7X0X8XqX8X5Xn.n.3XB.m.,X' S.JXhX/ 9 6 9 l : < , P &X}.n O k _.l.b , . ",
"n L E l 4.).K.f.n n 5.h.d.L b l 9.J.W R.1XGX:XX.+.-.n.:.:.:.=.-.-.$.=.n.,.V.2.n.;.$.S.FXZXSXdXE.y.L = 1 3 E j.5.9 O 1 , , O   o ",
"M U P f M U q.4.m m 7.h.].U j T ^.jX1XlXcXAXuX] $.:.;.;.:.n.&.-.%.-.m.m.m.5X;.n.-.o.S.GXvXMXbXcXVXdXE.Z - < s f s , O & = & . . ",
"6.h.j.n k 4.|.J.m k w.@XXX9.x.1XfXfXdXfXmXnXfX*.$.=.>.n.>.>.m.5XB.5XwXn.m.B.M.-.-.] *.JXMXVXmXkXhXmXcXfX/.i.x < n < . , = O , . ",
"]._.XXd.U 6.`.).M k b 9.%XdXfXmXcXfXzXzXvXvXAX,X$.-.M.M.-.,.=.n.8X5Xm.M.m.>.m.-.%.a 2XJXZXVXNXNXbXnXcXmXnXSXdX .T 6 + , O 1 + . ",
".X6.].].U k u. Xn P x.1XfXfXfXfXmXzXPXMXZXAXCXfX#.:.-.M.;.-.-.$.=.M.%.m.M.B.-.M.O.i CXnXCXFXDXNXCXvXbXcXcXcXnXSXjXx.2 O 1 2 = + ",
".X4._.}.U f 6. XY.dXlXcXkXkXlXcXBXMXBXCXDXnXGXFX2X$.m.,.M.m.M.%.o.$.;.M.m.M.%.B.p *.LXDXGXJXDXNXDXHXHXAXvXnXMXvXSXSXhX} . , d O ",
"XX6.j.}.U f w.dXcXfXcXcXnXZXKXcXAXCXKXDXJXDXCXJXDX,X-.-.n.B.-.M.M.%.M.M.V.;.m.=.B zXDXJXJXDXKXLXHXCXCXDXCXCXBXBXnXnXSXSX:XK.]., ",
"{.[.).b.M P <XxXcXcXMXZXFXVXZXCXNXFXLXKXJXKXBXCXLXxX:.-.M.B.B.M.;.;.-.;.;.;.B.B uXLXNXJXLXLXJXGXJXHXHXDXZXMXBXCXZXZXvXSXLXsX}.k ",
"7.J.H.7.m E.cXmXmXvXMXAXvXDXMXMXHXBXLXJXGXGXPXKXGXHXzX:.;.B.6Xm.M.%.;.M.B.B.o.7XLXbXLXKXKXLXKXLXJXHXPXNXCXHXCXVXBXnXHXSXJXmX*Xn ",
"m U d.b } nXvXmXMXMXNXNXNXCXNXvXDXBXLXJXPXKXHXPXJXBXBXzX,Xm.V.V.B.M.M.V.V.$.uXKXCXJXJXDXJXLXLXJXJXCXHXCXAXCXBXCXCXNXDXDXDXZXjX6.",
"m 5.f.T E.ZXcXVXPXNXCXNXCXDXBXMXPXCXLXJXPXKXFXPXDXKXBXDXzX7X>X6XV.V.B.V.%.fXKXbXFXJXFXDXHXJXGXKXJXDXCXCXZXHXCXCXHXvXBXNXVXCXhXP.",
"k b q.4.1XmXcXZXDXDXNXCXDXCXNXMXKXPXLXJXKXCXKXDXCXJXJXlXcXBXuXyXV.wXwXfXBXDXbXLXFXJXDXDXJXJXJXJXLXDXCXCXCXHXDXDXFXNXCXCXVXVXSX@X",
"k j 6.g.fXcXvXMXDXDXDXDXDXCXNXNXKXPXLXGXLXPXDXHXCXDXLXKXBXlXBXlXzXzXbXbXNXBXJXPXDXDXDXFXLXJXJXHXLXHXCXNXCXZXCXDXFXCXPXKXGXNXVX%X",
"k k 4.Q.fXcXcXcXDXDXCXCXDXCXBXBXJXCXLXKXLXPXFXJXCXPXKXDXJXVXVXcXmXbXvXNXDXKXKXPXJXGXCXFXJXLXJXDXJXJXDXMXCXZXDXDXHXCXCXCXnXMXAXjX",
"k m U /.ZXbXmXcXNXDXCXNXCXDXCXCXJXPXJXKXLXDXDXFXBXBXKXKXDXNXvXFXGXNXCXBXBXJXnXDXFXCXCXFXJXJXJXDXJXJXDXbXDXVXDXFXDXDXBXAXVXMXZXhX",
"s k n <XZXcXkXcXbXNXNXNXCXDXCXCXJXPXJXJXJXKXDXFXJXNXbXLXJXCXDXbXMXlXNXNXHXDXPXJXGXCXDXFXHXJXJXDXJXJXBXNXCXDXDXJXCXCXNXVXAXMXcXcX",
"k f I dXZXlXbXvXlXNXNXMXNXCXNXCXJXDXKXHXLXJXPXJXJXVXNXPXDXJXFXHXHXJXFXJXGXPXLXBXDXCXJXJXDXJXJXCXJXLXcXNXCXFXDXHXAXVXNXBXAXcXmXcX"
};
